<?xml version="1.0" encoding="UTF-8" standalone="no"?>
<!-- Created with Inkscape (http://www.inkscape.org/) -->

<svg
   width="512"
   height="512"
   viewBox="0 0 512 512"
   version="1.1"
   id="svg1"
   xml:space="preserve"
   inkscape:version="1.4 (e7c3feb100, 2024-10-09)"
   sodipodi:docname="icon.svg"
   xmlns:inkscape="http://www.inkscape.org/namespaces/inkscape"
   xmlns:sodipodi="http://sodipodi.sourceforge.net/DTD/sodipodi-0.dtd"
   xmlns="http://www.w3.org/2000/svg"
   xmlns:svg="http://www.w3.org/2000/svg"><sodipodi:namedview
     id="namedview1"
     pagecolor="#626262"
     bordercolor="#000000"
     borderopacity="0.25"
     inkscape:showpageshadow="2"
     inkscape:pageopacity="0.0"
     inkscape:pagecheckerboard="0"
     inkscape:deskcolor="#d1d1d1"
     inkscape:document-units="px"
     inkscape:zoom="1.4142136"
     inkscape:cx="168.99852"
     inkscape:cy="212.13203"
     inkscape:window-width="2560"
     inkscape:window-height="1368"
     inkscape:window-x="0"
     inkscape:window-y="0"
     inkscape:window-maximized="1"
     inkscape:current-layer="svg1" /><defs
     id="defs1" /><g
     inkscape:groupmode="layer"
     id="layer2"
     inkscape:label="TraceLayer"><g
       id="g24"
       inkscape:label="legs"><path
         style="fill:#ffffff;fill-opacity:1;stroke:#000000;stroke-linecap:round;stroke-linejoin:round;stroke-opacity:1;paint-order:markers stroke fill"
         d="m 485.65625,302.4375 22.92187,0.0312 0.0469,45.8125 h -22.96875 z"
         id="path15" /><path
         style="fill:#ffffff;fill-opacity:1;stroke:#000000;stroke-linecap:round;stroke-linejoin:round;stroke-opacity:1;paint-order:markers stroke fill"
         d="m 462.6909,279.57234 22.93678,-0.0663 0.0221,22.93678 -22.91468,0.0221 z"
         id="path14" /><path
         style="fill:#ffffff;fill-opacity:1;stroke:#000000;stroke-linecap:round;stroke-linejoin:round;stroke-opacity:1;paint-order:markers stroke fill"
         d="m 439.84375,210.78125 22.875,-0.0625 v 68.875 l -22.90938,-0.0546 z"
         id="path13" /><path
         style="fill:#ffffff;fill-opacity:1;stroke:#000000;stroke-linecap:round;stroke-linejoin:round;stroke-opacity:1;paint-order:markers stroke fill"
         d="m 348.02912,348.29428 h 22.93677 l 0.13259,22.93678 h -23.06936 z"
         id="path18" /><path
         style="fill:#ffffff;fill-opacity:1;stroke:#000000;stroke-linecap:round;stroke-linejoin:round;stroke-opacity:1;paint-order:markers stroke fill"
         d="m 370.87751,325.31331 22.84838,0.0442 0.22097,22.98097 h -22.93677 z"
         id="path17" /><path
         style="fill:#ffffff;fill-opacity:1;stroke:#000000;stroke-linecap:round;stroke-linejoin:round;stroke-opacity:1;paint-order:markers stroke fill"
         d="m 393.94686,302.42073 h 22.98098 v 22.93678 h -23.06936 z"
         id="path16" /><path
         style="fill:#ffffff;fill-opacity:1;stroke:#000000;stroke-linecap:round;stroke-linejoin:round;stroke-opacity:1;paint-order:markers stroke fill"
         d="m 27.210937,302.46094 0.02344,45.85156 -22.9140625,-0.0156 v -45.85156 z"
         id="path21" /><path
         style="fill:#ffffff;fill-opacity:1;stroke:#000000;stroke-linecap:round;stroke-linejoin:round;stroke-opacity:1;paint-order:markers stroke fill"
         d="m 50.15625,302.4375 -22.943687,0.0385 0.01105,-22.96992 22.936776,0.0221 z"
         id="path20" /><path
         style="fill:#ffffff;fill-opacity:1;stroke:#000000;stroke-linecap:round;stroke-linejoin:round;stroke-opacity:1;paint-order:markers stroke fill"
         d="m 50.125,210.75 22.9375,0.0312 v 68.75 h -23 z"
         id="path19" /><path
         style="fill:#ffffff;fill-opacity:1;stroke:#000000;stroke-linecap:round;stroke-linejoin:round;stroke-opacity:1;paint-order:markers stroke fill"
         d="m 141.85937,348.3125 -0.0312,22.875 22.95313,0.0312 0.0469,-22.9375 z"
         id="path24" /><path
         style="fill:#ffffff;fill-opacity:1;stroke:#000000;stroke-linecap:round;stroke-linejoin:round;stroke-opacity:1;paint-order:markers stroke fill"
         d="m 118.90625,325.34375 22.96875,-0.0312 v 23 h -22.96875 z"
         id="path23" /><path
         style="fill:#ffffff;fill-opacity:1;stroke:#000000;stroke-linecap:round;stroke-linejoin:round;stroke-opacity:1;paint-order:markers stroke fill"
         d="m 95.989745,302.42073 22.958875,0.0442 V 325.4017 H 95.945551 Z"
         id="path22" /></g><path
       style="fill:#ffffff;fill-opacity:1;stroke:#000000;stroke-linecap:round;stroke-linejoin:round;stroke-opacity:1;paint-order:markers stroke fill"
       d="m 187.67187,302.48437 22.90625,-0.0312 0.0312,-22.95312 22.875,0.0312 0.0469,22.89062 45.85937,0.0156 -0.0625,-22.9375 22.96875,0.0117 0.0156,22.9414 h 22.87891 l 0.0225,22.90439 -137.52122,0.0221 z"
       id="path12"
       inkscape:label="mouth" /><g
       id="g11"
       inkscape:label="cheeks"><path
         style="fill:#ffffff;fill-opacity:1;stroke:#000000;stroke-linecap:round;stroke-linejoin:round;stroke-opacity:1;paint-order:markers stroke fill"
         d="m 73.105469,187.83594 45.815531,0.006 v 22.9202 h 45.84593 l 0.006,22.92021 -45.85698,0.0111 0.0166,22.90915 h 22.91468 l -0.006,22.91468 45.82936,0.0166 0.0169,22.95461 -68.79687,-0.0273 0.0273,-22.96094 -22.906251,0.0195 v -68.77734 l -22.902344,0.0312 z"
         id="path10"
         inkscape:label="left cheek" /><path
         style="fill:#ffffff;fill-opacity:1;stroke:#000000;stroke-linecap:round;stroke-linejoin:round;stroke-opacity:1;paint-order:markers stroke fill"
         d="m 393.99219,187.8125 45.84375,0.0312 -0.008,22.92187 -22.9375,-0.008 0.0156,68.75781 -22.9375,0.0156 v 22.92969 H 325.1951 l 0.0234,-22.92969 45.83594,0.0156 0.0234,-22.96093 22.88282,0.0312 0.0156,-22.95313 -45.84375,0.0234 v -22.92188 h 45.85938 z"
         id="path11"
         inkscape:label="right cheek" /></g><g
       id="g7"
       inkscape:label="eyes"><path
         style="fill:#ffffff;fill-opacity:1;stroke:#000000;stroke-linecap:round;stroke-linejoin:round;stroke-opacity:1;paint-order:markers stroke fill"
         d="m 187.7037,210.77306 45.84317,-0.007 -0.0195,22.92188 -22.91406,0.0156 0.0312,22.94141 -22.92187,-0.0156 z"
         id="path7" /><path
         style="fill:#ffffff;fill-opacity:1;stroke:#000000;stroke-linecap:round;stroke-linejoin:round;stroke-opacity:1;paint-order:markers stroke fill"
         d="m 164.75781,187.83594 -0.0117,22.94531 22.96485,-0.0195 -0.0391,-22.9375 z"
         id="path6" /><path
         style="fill:#ffffff;fill-opacity:1;stroke:#000000;stroke-linecap:round;stroke-linejoin:round;stroke-opacity:1;paint-order:markers stroke fill"
         d="m 279.33203,210.78906 0.008,22.88281 22.96875,0.0156 -0.008,22.89062 22.91016,0.0195 0.0156,-45.83594 z"
         id="path9" /><path
         style="fill:#ffffff;fill-opacity:1;stroke:#000000;stroke-linecap:round;stroke-linejoin:round;stroke-opacity:1;paint-order:markers stroke fill"
         d="m 325.21094,187.84375 -0.0156,22.92187 h 22.95313 v -22.92187 z"
         id="path8" /></g><g
       id="g5"
       inkscape:label="antena"><path
         style="fill:#ffffff;fill-opacity:1;stroke:#000000;stroke-linecap:round;stroke-linejoin:round;stroke-opacity:1;paint-order:markers stroke fill"
         d="m 393.95113,50.30699 -0.0195,22.920013 22.99804,0.01951 -0.0195,-22.959026 z"
         id="path5" /><path
         style="fill:#ffffff;fill-opacity:1;stroke:#000000;stroke-linecap:round;stroke-linejoin:round;stroke-opacity:1;paint-order:markers stroke fill"
         d="m 371.0069,73.255173 0.0414,22.868965 22.93793,0.01379 -0.0276,-22.910345 z"
         id="path4" /><path
         style="fill:#ffffff;fill-opacity:1;stroke:#000000;stroke-opacity:1;stroke-linejoin:round;stroke-linecap:round;paint-order:markers stroke fill"
         d="M 95.932446,50.287484 H 118.91098 V 73.305029 L 95.932446,73.227003 Z"
         id="path1" /><path
         style="fill:#ffffff;fill-opacity:1;stroke:#000000;stroke-linecap:round;stroke-linejoin:round;stroke-opacity:1;paint-order:markers stroke fill"
         d="m 141.8505,73.227003 v 22.939519 h -22.97853 l 0.039,-22.939519 z"
         id="path2" /></g><path
       style="fill:#ffffff;fill-opacity:1;stroke:#000000;stroke-linecap:round;stroke-linejoin:round;stroke-opacity:1;paint-order:markers stroke fill"
       d="m 164.751,96.12751 -0.006,45.83111 45.87586,-0.0276 -0.0828,-22.86896 91.72414,-0.0276 0.0276,22.92414 45.84827,0.0552 V 96.110345 h 22.97931 l -0.0828,68.827585 22.93793,-0.0138 0.0276,22.89655 -45.84827,0.0276 -0.0552,-22.91035 h -45.80689 l 0.0276,22.92414 -91.71034,-0.0276 -0.0276,-22.92413 -45.84828,0.0138 0.0276,22.91034 -45.84827,0.0138 -0.0138,-22.93793 h 22.93793 l -0.003,-68.763334 z"
       id="path3"
       inkscape:label="head" /></g></svg>
